<svg xmlns="http://www.w3.org/2000/svg" width="46" height="46" viewBox="0 0 46 46"><defs><style>.a{fill:none;}.b{fill:#fff;}.c{fill:#4a72ff;}</style></defs><g transform="translate(0.182 -0.064)"><rect class="a" width="46" height="46" transform="translate(-0.182 0.064)"/><path class="b" d="M-1469.95-1003.587v-3.235a11,11,0,0,1-7.326-7.325h-3.256a1.662,1.662,0,0,1-1.65-1.65,1.647,1.647,0,0,1,1.65-1.65h2.75v-4.84h-2.75a1.662,1.662,0,0,1-1.65-1.651,1.648,1.648,0,0,1,1.65-1.649h2.75v-4.84h-2.75a1.647,1.647,0,0,1-1.65-1.651,1.662,1.662,0,0,1,1.65-1.649h3.256a11.006,11.006,0,0,1,7.326-7.326v-3.234a1.648,1.648,0,0,1,1.651-1.651,1.662,1.662,0,0,1,1.65,1.651v2.75h4.818v-2.75a1.662,1.662,0,0,1,1.651-1.651,1.662,1.662,0,0,1,1.65,1.651v2.75h4.84v-2.75a1.662,1.662,0,0,1,1.65-1.651,1.662,1.662,0,0,1,1.65,1.651v3.255a10.945,10.945,0,0,1,7.3,7.3h3.256a1.647,1.647,0,0,1,1.65,1.649,1.633,1.633,0,0,1-1.65,1.651h-2.75v4.048a.947.947,0,0,1-1.43.813,4.042,4.042,0,0,0-3.1-.439,1.187,1.187,0,0,1-1.5-.968v-1.936a6.619,6.619,0,0,0-6.6-6.6h-9.944a6.619,6.619,0,0,0-6.6,6.6v9.942a6.618,6.618,0,0,0,6.6,6.6h.99a.452.452,0,0,1,.462.464,4.446,4.446,0,0,0,3.564,4.311.713.713,0,0,1,.507.9.522.522,0,0,1-.484.352h-6.534v2.75a1.662,1.662,0,0,1-1.65,1.651A1.648,1.648,0,0,1-1469.95-1003.587Zm.418-15.993v-8.712a4.976,4.976,0,0,1,4.994-4.994h8.712a4.976,4.976,0,0,1,4.994,4.994v1.254c0,.748-.99,1.21-1.695,1.034a3.977,3.977,0,0,0-3.1.418l-2,1.165a4.386,4.386,0,0,0-2.244,3.829,2.453,2.453,0,0,0,.021.4,2.5,2.5,0,0,1-1.3,2.244,4.49,4.49,0,0,0-2.288,2.507,1.219,1.219,0,0,1-1.1.858A4.976,4.976,0,0,1-1469.532-1019.58Z" transform="translate(1483 1046.999)"/><path class="c" d="M1052.5,4723.767c-1.5,0-2.354-.748-2.354-1.848a2.952,2.952,0,0,1,.44-1.474,2.2,2.2,0,0,0-.814-3.014l-2-1.166a1.947,1.947,0,0,0-2.662.7l-.132.22c-1.056,1.826-2.772,1.826-3.828,0l-.132-.22a1.922,1.922,0,0,0-2.64-.7l-2.024,1.166a2.208,2.208,0,0,0-1.122,1.914,2.249,2.249,0,0,0,.308,1.1,3,3,0,0,1,.462,1.474c0,1.1-.88,1.848-2.376,1.848a2.225,2.225,0,0,0-2.222,2.2v2.068a2.225,2.225,0,0,0,2.222,2.2c1.5,0,2.376.748,2.376,1.848a3,3,0,0,1-.462,1.474,2.2,2.2,0,0,0,.814,3.014l2.024,1.166a1.922,1.922,0,0,0,2.64-.7l.132-.22c1.056-1.826,2.772-1.826,3.828,0l.132.22a1.947,1.947,0,0,0,2.662.7l2-1.166a2.208,2.208,0,0,0,1.122-1.914,2.251,2.251,0,0,0-.308-1.1,2.952,2.952,0,0,1-.44-1.474c0-1.1.858-1.848,2.354-1.848a2.211,2.211,0,0,0,2.222-2.2v-2.068A2.211,2.211,0,0,0,1052.5,4723.767Zm-9.438,7.019a3.784,3.784,0,1,1,3.784-3.784A3.784,3.784,0,0,1,1043.06,4730.785Z" transform="translate(-1009.902 -4692.939)"/></g></svg>