<svg xmlns="http://www.w3.org/2000/svg" width="239.913" height="239.901" viewBox="0 0 239.913 239.901"><defs><style>.a,.c{fill:#fff;}.a{opacity:0.191;}.b{fill:#294bc2;}</style></defs><g transform="translate(20.036 17.077)"><path class="a" d="M35.279,207.856A119.944,119.944,0,1,0,9.473,169.587a119.944,119.944,0,0,0,25.806,38.268Z" transform="translate(-20.036 -20.035)"/><path class="b" d="M29.386,173.632a99.91,99.91,0,1,0-21.5-31.877,99.91,99.91,0,0,0,21.5,31.877Z" transform="translate(0)"/><path class="c" d="M402.159,399.015a11.233,11.233,0,0,0,5.344,1.372,11.824,11.824,0,0,0,6.432-1.963L448.413,375.7a13.455,13.455,0,0,0,6.03-11.374,13.03,13.03,0,0,0-5.841-11.067l-34.785-22.678a11.351,11.351,0,0,0-11.824-.591,13.29,13.29,0,0,0-6.527,11.824v45.379A13.219,13.219,0,0,0,402.159,399.015Z" transform="translate(-317.982 -261.847)"/></g></svg>